<?xml version="1.0" encoding="utf-8"?>
<!-- Generator: Adobe Illustrator 24.0.1, SVG Export Plug-In . SVG Version: 6.00 Build 0)  -->
<svg version="1.1" xmlns="http://www.w3.org/2000/svg" xmlns:xlink="http://www.w3.org/1999/xlink" x="0px" y="0px"
	 viewBox="0 0 1000 1000" style="enable-background:new 0 0 1000 1000;" xml:space="preserve">
<style type="text/css">
	.st0{display:none;}
	.st1{display:inline;fill:#010101;}
	.st2{display:inline;}
	.st3{enable-background:new    ;}
	.st4{clip-path:url(#SVGID_1_);}
	.st5{fill:#3FA0FF;}
	.st6{clip-path:url(#SVGID_5_);}
	.st7{fill:#3F5FFF;}
	.st8{clip-path:url(#SVGID_6_);}
	.st9{fill:#19D2E9;}
	.st10{fill:#00A2B4;}
	.st11{fill:#00B5C9;}
	.st12{fill:#00C5DA;}
	.st13{fill:#007380;}
	.st14{fill:#00717D;}
	.st15{fill:#00707D;}
	.st16{fill:#00B5C8;}
	.st17{fill:#3F6D81;}
	.st18{fill:#00717E;}
	.st19{fill:#00B6CA;}
	.st20{fill:#00A3B6;}
	.st21{fill:#1D49C5;}
	.st22{fill:#2152DC;}
	.st23{fill:#2459EF;}
	.st24{fill:#143389;}
	.st25{fill:#007DC5;}
	.st26{fill:#005789;}
	.st27{fill:#008CDC;}
</style>
<g id="Capa_1" class="st0">
	<rect class="st1" width="1000" height="1000"/>
</g>
<g id="Logo_2D" class="st0">
	<g id="Logo2D" class="st2">
		<g>
			<g class="st3">
				<defs>
					<polygon id="SVGID_3_" class="st3" points="259.66,357 500.4,217.09 742.72,357 501.98,496.9 					"/>
				</defs>
				<clipPath id="SVGID_1_">
					<use xlink:href="#SVGID_3_"  style="overflow:visible;"/>
				</clipPath>
				<g class="st4">
					<path class="st5" d="M647.5,412.33l-115.04-66.42l-50.14,29.14l59.07,34.1l-45.26,26.3l-130.39-75.28l95.39-55.44l-55.96-32.31
						L259.66,357l242.32,139.9l50.13-29.13l45.26-26.3L647.5,412.33 M742.72,357L500.4,217.09l-50.14,29.14l242.32,139.9L742.72,357
						"/>
				</g>
			</g>
		</g>
		<g>
			<g class="st3">
				<defs>
					<polygon id="SVGID_4_" class="st3" points="253.23,640.9 254.02,362.46 496.34,502.36 495.55,780.8 					"/>
				</defs>
				<clipPath id="SVGID_5_">
					<use xlink:href="#SVGID_4_"  style="overflow:visible;"/>
				</clipPath>
				<g class="st6">
					<polyline class="st7" points="496.34,502.36 442.73,471.41 374.81,594.73 307.63,393.41 254.02,362.46 253.23,640.9 
						300.74,668.33 301.22,499.01 374.48,710.9 448.53,584.06 448.05,753.37 495.55,780.8 496.34,502.36 					"/>
				</g>
			</g>
		</g>
		<g>
			<g class="st3">
				<defs>
					<polygon id="SVGID_2_" class="st3" points="504.45,782.91 503.66,504.47 745.97,364.56 746.76,643 					"/>
				</defs>
				<clipPath id="SVGID_6_">
					<use xlink:href="#SVGID_2_"  style="overflow:visible;"/>
				</clipPath>
				<g class="st8">
					<polyline class="st9" points="745.97,364.56 503.66,504.47 504.13,672.58 690.49,564.99 690.64,617.33 504.28,724.93 
						504.45,782.91 746.76,643 746.29,474.69 559.94,582.28 559.79,530.14 746.14,422.55 745.97,364.56 					"/>
				</g>
			</g>
		</g>
	</g>
</g>
<g id="Logo_3D" class="st0">
	<g id="Logo3D" class="st2">
		<g>
			<g class="st3">
				<g>
					<polygon class="st10" points="291.47,528.53 326.71,508.05 326.29,656.76 291.05,677.24 					"/>
				</g>
				<g>
					<polygon class="st11" points="250.02,408.6 285.26,388.12 332.34,415.3 297.1,435.78 					"/>
				</g>
				<g>
					<polygon class="st12" points="297.1,435.78 332.34,415.3 391.34,592.12 356.1,612.6 					"/>
				</g>
				<g>
					<polygon class="st13" points="420.85,603.23 456.09,582.75 391.05,694.15 355.81,714.63 					"/>
				</g>
				<g>
					<polygon class="st10" points="462.84,531.47 498.08,510.99 497.39,755.55 462.15,776.02 					"/>
				</g>
				<g>
					<polygon class="st11" points="415.76,504.29 451,483.81 498.08,510.99 462.84,531.47 					"/>
				</g>
				<g>
					<polygon class="st14" points="462.84,531.47 462.15,776.02 420.43,751.94 420.85,603.23 355.81,714.63 291.47,528.53 
						291.05,677.24 249.33,653.15 250.02,408.6 297.1,435.78 356.1,612.6 415.76,504.29 					"/>
				</g>
			</g>
		</g>
		<g>
			<g class="st3">
				<g>
					<polygon class="st15" points="701.38,632.54 666.14,612.06 666.01,566.08 701.25,586.56 					"/>
				</g>
				<g>
					<polygon class="st15" points="537.86,777.95 502.62,757.47 502.47,706.55 537.71,727.03 					"/>
				</g>
				<g>
					<polygon class="st16" points="537.71,727.03 502.47,706.55 666.14,612.06 701.38,632.54 					"/>
				</g>
				<g>
					<polygon class="st16" points="586.59,601.75 551.35,581.27 715.02,486.78 750.26,507.26 					"/>
				</g>
				<g>
					<polygon class="st15" points="537.58,681.05 502.34,660.57 501.92,512.93 537.16,533.4 					"/>
				</g>
				<g>
					<polygon class="st16" points="537.16,533.4 501.92,512.93 714.74,390.05 749.98,410.53 					"/>
				</g>
				<g>
					<polygon class="st10" points="749.98,410.53 750.13,461.46 586.46,555.95 586.59,601.75 750.26,507.26 750.68,655.08 
						537.86,777.95 537.71,727.03 701.38,632.54 701.25,586.56 537.58,681.05 537.16,533.4 					"/>
				</g>
			</g>
		</g>
		<g>
			<g class="st3">
				<g>
					<polygon class="st10" points="713.84,344.92 713.73,385.68 669.7,411.27 669.81,370.51 					"/>
				</g>
				<g>
					<polygon class="st17" points="669.81,370.51 669.7,411.27 456.87,288.39 456.99,247.64 					"/>
				</g>
				<g>
					<polygon class="st5" points="501.02,222.05 713.84,344.92 669.81,370.51 456.99,247.64 					"/>
				</g>
			</g>
			<g class="st3">
				<g>
					<polygon class="st10" points="466.54,299.03 466.43,339.79 382.65,388.47 382.76,347.72 					"/>
				</g>
				<g>
					<polygon class="st17" points="537.03,390.73 536.92,431.49 485.03,401.53 485.15,360.78 					"/>
				</g>
				<g>
					<polygon class="st17" points="502.41,467.8 502.29,508.56 289.46,385.68 289.58,344.92 					"/>
				</g>
				<polygon class="st10" points="586.19,419.11 546.43,442.21 502.41,467.8 502.29,508.56 546.32,482.97 586.07,459.87 
					630.1,434.28 630.21,393.52 				"/>
				<g>
					<polygon class="st5" points="485.15,360.78 529.18,335.19 630.21,393.52 586.19,419.11 546.43,442.21 502.41,467.8 
						289.58,344.92 417.39,270.65 466.54,299.03 382.76,347.72 497.28,413.83 537.03,390.73 					"/>
				</g>
			</g>
		</g>
	</g>
</g>
<g id="Logo_3D_1_">
	<g>
		<g class="st3">
			<g>
				<polygon class="st18" points="862.39,736.55 799.05,699.74 798.81,617.11 862.15,653.92 				"/>
			</g>
			<g>
				<polygon class="st18" points="568.46,997.94 505.12,961.13 504.86,869.58 568.2,906.39 				"/>
			</g>
			<g>
				<polygon class="st19" points="568.2,906.39 504.86,869.58 799.05,699.74 862.39,736.55 				"/>
			</g>
			<g>
				<polygon class="st19" points="656.06,681.21 592.72,644.4 886.91,474.55 950.25,511.36 				"/>
			</g>
			<g>
				<polygon class="st18" points="567.97,823.77 504.63,786.96 503.87,521.56 567.22,558.37 				"/>
			</g>
			<g>
				<polygon class="st19" points="567.22,558.37 503.87,521.56 886.41,300.7 949.75,337.51 				"/>
			</g>
			<g>
				<polygon class="st20" points="949.75,337.51 950.01,429.05 655.83,598.9 656.06,681.21 950.25,511.36 951,777.08 568.46,997.94 
					568.2,906.39 862.39,736.55 862.15,653.92 567.97,823.77 567.22,558.37 				"/>
			</g>
		</g>
	</g>
	<g>
		<g class="st3">
			<g>
				<polygon class="st21" points="123.75,554.2 187.09,517.4 186.34,784.69 123,821.5 				"/>
			</g>
			<g>
				<polygon class="st22" points="49.25,338.65 112.59,301.84 197.22,350.7 133.88,387.51 				"/>
			</g>
			<g>
				<polygon class="st23" points="133.88,387.51 197.22,350.7 303.26,668.51 239.92,705.32 				"/>
			</g>
			<g>
				<polygon class="st21" points="356.29,688.46 419.63,651.65 302.74,851.89 239.4,888.7 				"/>
			</g>
			<g>
				<polygon class="st21" points="431.77,559.5 495.11,522.69 493.87,962.24 430.53,999.05 				"/>
			</g>
			<g>
				<polygon class="st22" points="347.15,510.64 410.49,473.83 495.11,522.69 431.77,559.5 				"/>
			</g>
			<g>
				<polygon class="st24" points="431.77,559.5 430.53,999.05 355.53,955.76 356.29,688.46 239.4,888.7 123.75,554.2 123,821.5 
					48,778.2 49.25,338.65 133.88,387.51 239.92,705.32 347.15,510.64 				"/>
			</g>
		</g>
	</g>
	<g>
		<g class="st3">
			<g>
				<polygon class="st25" points="880.32,218.54 880.12,291.8 800.97,337.8 801.18,264.54 				"/>
			</g>
			<g>
				<polygon class="st26" points="801.18,264.54 800.97,337.8 418.44,116.94 418.65,43.68 				"/>
			</g>
			<g>
				<polygon class="st27" points="497.8,-2.31 880.32,218.54 801.18,264.54 418.65,43.68 				"/>
			</g>
		</g>
		<g class="st3">
			<g>
				<polygon class="st25" points="435.82,136.05 435.62,209.31 285.03,296.82 285.23,223.56 				"/>
			</g>
			<g>
				<polygon class="st26" points="562.52,300.89 562.31,374.15 469.06,320.31 469.27,247.05 				"/>
			</g>
			<g>
				<polygon class="st26" points="500.27,439.4 500.06,512.66 117.54,291.81 117.74,218.55 				"/>
			</g>
			<polygon class="st25" points="650.86,351.89 579.42,393.41 500.27,439.4 500.06,512.66 579.21,466.67 650.65,425.15 
				729.8,379.15 730.01,305.89 			"/>
			<g>
				<polygon class="st27" points="469.27,247.05 548.41,201.05 730.01,305.89 650.86,351.89 579.42,393.41 500.27,439.4 
					117.74,218.55 347.48,85.04 435.82,136.05 285.23,223.56 491.08,342.4 562.52,300.89 				"/>
			</g>
		</g>
	</g>
</g>
</svg>
